<svg xmlns="http://www.w3.org/2000/svg" width="2281.12451171875" height="895.5205078125" viewBox="-1850.4117431640625 -454.5714416503906 2281.12451171875 895.5205078125"><title>Neo4j Graph Visualization</title><desc>Created using Neo4j (http://www.neo4j.com/)</desc><g class="layer relationships"><g class="relationship" transform="translate(-1795.458039467902 189.76654585779664) rotate(401.95029544383766)"><path class="b-outline" fill="#A5ABB6" stroke="none" d="M 25 0.5 L 134.5682152643315 0.5 L 134.5682152643315 -0.5 L 25 -0.5 Z M 190.7986840143315 0.5 L 300.366899278663 0.5 L 300.366899278663 3.5 L 307.366899278663 0 L 300.366899278663 -3.5 L 300.366899278663 -0.5 L 190.7986840143315 -0.5 Z"/><text text-anchor="middle" pointer-events="none" font-size="8px" fill="#000000" x="162.6834496393315" y="3" font-family="Helvetica Neue, Helvetica, Arial, sans-serif">PURCHASED</text></g><g class="relationship" transform="translate(-1795.458039467902 189.76654585779664) rotate(359.5462674870464)"><path class="b-outline" fill="#A5ABB6" stroke="none" d="M 25 0.5 L 97.42005196751035 0.5 L 97.42005196751035 -0.5 L 25 -0.5 Z M 153.65052071751035 0.5 L 226.0705726850207 0.5 L 226.0705726850207 3.5 L 233.0705726850207 0 L 226.0705726850207 -3.5 L 226.0705726850207 -0.5 L 153.65052071751035 -0.5 Z"/><text text-anchor="middle" pointer-events="none" font-size="8px" fill="#000000" x="125.53528634251035" y="3" font-family="Helvetica Neue, Helvetica, Arial, sans-serif">PURCHASED</text></g><g class="relationship" transform="translate(-1795.458039467902 189.76654585779664) rotate(306.6306766340472)"><path class="b-outline" fill="#A5ABB6" stroke="none" d="M 25 0.5 L 74.76200827097989 0.5 L 74.76200827097989 -0.5 L 25 -0.5 Z M 130.9924770209799 0.5 L 180.75448529195978 0.5 L 180.75448529195978 3.5 L 187.75448529195978 0 L 180.75448529195978 -3.5 L 180.75448529195978 -0.5 L 130.9924770209799 -0.5 Z"/><text text-anchor="middle" pointer-events="none" font-size="8px" fill="#000000" x="102.87724264597989" y="3" font-family="Helvetica Neue, Helvetica, Arial, sans-serif">PURCHASED</text></g><g class="relationship" transform="translate(-1795.458039467902 189.76654585779664) rotate(265.7878863085884)"><path class="b-outline" fill="#A5ABB6" stroke="none" d="M 25 0.5 L 145.0634074714261 0.5 L 145.0634074714261 -0.5 L 25 -0.5 Z M 201.2938762214261 0.5 L 321.3572836928522 0.5 L 321.3572836928522 3.5 L 328.3572836928522 0 L 321.3572836928522 -3.5 L 321.3572836928522 -0.5 L 201.2938762214261 -0.5 Z"/><text text-anchor="middle" pointer-events="none" font-size="8px" fill="#000000" x="173.1786418464261" y="3" transform="rotate(180 173.1786418464261 0)" font-family="Helvetica Neue, Helvetica, Arial, sans-serif">PURCHASED</text></g><g class="relationship" transform="translate(-1479.4898714525766 -271.88651139550086) rotate(457.18079845368237)"><path class="b-outline" fill="#A5ABB6" stroke="none" d="M 25 0.5 L 200.00614609541722 0.5 L 200.00614609541722 -0.5 L 25 -0.5 Z M 256.2366148454172 0.5 L 431.24276094083444 0.5 L 431.24276094083444 3.5 L 438.24276094083444 0 L 431.24276094083444 -3.5 L 431.24276094083444 -0.5 L 256.2366148454172 -0.5 Z"/><text text-anchor="middle" pointer-events="none" font-size="8px" fill="#000000" x="228.12138047041722" y="3" transform="rotate(180 228.12138047041722 0)" font-family="Helvetica Neue, Helvetica, Arial, sans-serif">PURCHASED</text></g><g class="relationship" transform="translate(-1479.4898714525766 -271.88651139550086) rotate(483.0142487763061)"><path class="b-outline" fill="#A5ABB6" stroke="none" d="M 25 0.5 L 141.8527459207523 0.5 L 141.8527459207523 -0.5 L 25 -0.5 Z M 198.0832146707523 0.5 L 314.9359605915046 0.5 L 314.9359605915046 3.5 L 321.9359605915046 0 L 314.9359605915046 -3.5 L 314.9359605915046 -0.5 L 198.0832146707523 -0.5 Z"/><text text-anchor="middle" pointer-events="none" font-size="8px" fill="#000000" x="169.9679802957523" y="3" transform="rotate(180 169.9679802957523 0)" font-family="Helvetica Neue, Helvetica, Arial, sans-serif">PURCHASED</text></g><g class="relationship" transform="translate(-1479.4898714525766 -271.88651139550086) rotate(522.2803843736506)"><path class="b-outline" fill="#A5ABB6" stroke="none" d="M 25 0.5 L 147.86053673344796 0.5 L 147.86053673344796 -0.5 L 25 -0.5 Z M 204.09100548344796 0.5 L 326.9515422168959 0.5 L 326.9515422168959 3.5 L 333.9515422168959 0 L 326.9515422168959 -3.5 L 326.9515422168959 -0.5 L 204.09100548344796 -0.5 Z"/><text text-anchor="middle" pointer-events="none" font-size="8px" fill="#000000" x="175.97577110844796" y="3" transform="rotate(180 175.97577110844796 0)" font-family="Helvetica Neue, Helvetica, Arial, sans-serif">PURCHASED</text></g><g class="relationship" transform="translate(-1479.4898714525766 -271.88651139550086) rotate(325.53349997260244)"><path class="b-outline" fill="#A5ABB6" stroke="none" d="M 25 0.5 L 104.16701340385151 0.5 L 104.16701340385151 -0.5 L 25 -0.5 Z M 160.3974821538515 0.5 L 239.56449555770303 0.5 L 239.56449555770303 3.5 L 246.56449555770303 0 L 239.56449555770303 -3.5 L 239.56449555770303 -0.5 L 160.3974821538515 -0.5 Z"/><text text-anchor="middle" pointer-events="none" font-size="8px" fill="#000000" x="132.2822477788515" y="3" font-family="Helvetica Neue, Helvetica, Arial, sans-serif">PURCHASED</text></g><g class="relationship" transform="translate(-1341.7335608490148 -141.45609562931793) rotate(513.8437560178654)"><path class="b-outline" fill="#A5ABB6" stroke="none" d="M 25 0.5 L 150.41754716594704 0.5 L 150.41754716594704 -0.5 L 25 -0.5 Z M 206.64801591594704 0.5 L 332.0655630818941 0.5 L 332.0655630818941 3.5 L 339.0655630818941 0 L 332.0655630818941 -3.5 L 332.0655630818941 -0.5 L 206.64801591594704 -0.5 Z"/><text text-anchor="middle" pointer-events="none" font-size="8px" fill="#000000" x="178.53278154094704" y="3" transform="rotate(180 178.53278154094704 0)" font-family="Helvetica Neue, Helvetica, Arial, sans-serif">PURCHASED</text></g><g class="relationship" transform="translate(-1341.7335608490148 -141.45609562931793) rotate(182.52825545559813)"><path class="b-outline" fill="#A5ABB6" stroke="none" d="M 25 0.5 L 208.45757307085051 0.5 L 208.45757307085051 -0.5 L 25 -0.5 Z M 264.6880418208505 0.5 L 448.14561489170103 0.5 L 448.14561489170103 3.5 L 455.14561489170103 0 L 448.14561489170103 -3.5 L 448.14561489170103 -0.5 L 264.6880418208505 -0.5 Z"/><text text-anchor="middle" pointer-events="none" font-size="8px" fill="#000000" x="236.57280744585051" y="3" transform="rotate(180 236.57280744585051 0)" font-family="Helvetica Neue, Helvetica, Arial, sans-serif">PURCHASED</text></g><g class="relationship" transform="translate(-1341.7335608490148 -141.45609562931793) rotate(286.86605148993283)"><path class="b-outline" fill="#A5ABB6" stroke="none" d="M 25 0.5 L 116.82761624080922 0.5 L 116.82761624080922 -0.5 L 25 -0.5 Z M 173.05808499080922 0.5 L 264.88570123161844 0.5 L 264.88570123161844 3.5 L 271.88570123161844 0 L 264.88570123161844 -3.5 L 264.88570123161844 -0.5 L 173.05808499080922 -0.5 Z"/><text text-anchor="middle" pointer-events="none" font-size="8px" fill="#000000" x="144.94285061580922" y="3" font-family="Helvetica Neue, Helvetica, Arial, sans-serif">PURCHASED</text></g><g class="relationship" transform="translate(-1341.7335608490148 -141.45609562931793) rotate(323.80928548062315)"><path class="b-outline" fill="#A5ABB6" stroke="none" d="M 25 0.5 L 71.76083939579485 0.5 L 71.76083939579485 -0.5 L 25 -0.5 Z M 127.99130814579485 0.5 L 174.7521475415897 0.5 L 174.7521475415897 3.5 L 181.7521475415897 0 L 174.7521475415897 -3.5 L 174.7521475415897 -0.5 L 127.99130814579485 -0.5 Z"/><text text-anchor="middle" pointer-events="none" font-size="8px" fill="#000000" x="99.87607377079485" y="3" font-family="Helvetica Neue, Helvetica, Arial, sans-serif">PURCHASED</text></g><g class="relationship" transform="translate(-1671.8807798558819 -367.4432458577553) rotate(486.13345043761655)"><path class="b-outline" fill="#A5ABB6" stroke="none" d="M 25 0.5 L 95.1773188705417 0.5 L 95.1773188705417 -0.5 L 25 -0.5 Z M 151.40778762054168 0.5 L 221.5851064910834 0.5 L 221.5851064910834 3.5 L 228.5851064910834 0 L 221.5851064910834 -3.5 L 221.5851064910834 -0.5 L 151.40778762054168 -0.5 Z"/><text text-anchor="middle" pointer-events="none" font-size="8px" fill="#000000" x="123.2925532455417" y="3" transform="rotate(180 123.2925532455417 0)" font-family="Helvetica Neue, Helvetica, Arial, sans-serif">PURCHASED</text></g><g class="relationship" transform="translate(-1671.8807798558819 -367.4432458577553) rotate(352.05085267667505)"><path class="b-outline" fill="#A5ABB6" stroke="none" d="M 25 0.5 L 178.54627355286763 0.5 L 178.54627355286763 -0.5 L 25 -0.5 Z M 234.77674230286763 0.5 L 388.32301585573526 0.5 L 388.32301585573526 3.5 L 395.32301585573526 0 L 388.32301585573526 -3.5 L 388.32301585573526 -0.5 L 234.77674230286763 -0.5 Z"/><text text-anchor="middle" pointer-events="none" font-size="8px" fill="#000000" x="206.66150792786763" y="3" font-family="Helvetica Neue, Helvetica, Arial, sans-serif">PURCHASED</text></g><g class="relationship" transform="translate(-1671.8807798558819 -367.4432458577553) rotate(371.808269344869)"><path class="b-outline" fill="#A5ABB6" stroke="none" d="M 25 0.5 L 222.26122553745265 0.5 L 222.26122553745265 -0.5 L 25 -0.5 Z M 278.4916942874527 0.5 L 475.7529198249053 0.5 L 475.7529198249053 3.5 L 482.7529198249053 0 L 475.7529198249053 -3.5 L 475.7529198249053 -0.5 L 278.4916942874527 -0.5 Z"/><text text-anchor="middle" pointer-events="none" font-size="8px" fill="#000000" x="250.37645991245265" y="3" font-family="Helvetica Neue, Helvetica, Arial, sans-serif">PURCHASED</text></g><g class="relationship" transform="translate(-1671.8807798558819 -367.4432458577553) rotate(361.4428860624249)"><path class="b-outline" fill="#A5ABB6" stroke="none" d="M 25 0.5 L 215.243337567505 0.5 L 215.243337567505 -0.5 L 25 -0.5 Z M 271.473806317505 0.5 L 461.71714388501 0.5 L 461.71714388501 3.5 L 468.71714388501 0 L 461.71714388501 -3.5 L 461.71714388501 -0.5 L 271.473806317505 -0.5 Z"/><text text-anchor="middle" pointer-events="none" font-size="8px" fill="#000000" x="243.358571942505" y="3" font-family="Helvetica Neue, Helvetica, Arial, sans-serif">PURCHASED</text></g><g class="relationship" transform="translate(-876.7895306350321 -413.95651203039796) rotate(181.75624711124425)"><path class="b-outline" fill="#A5ABB6" stroke="none" d="M 25 0.5 L 157.87729506051085 0.5 L 157.87729506051085 -0.5 L 25 -0.5 Z M 214.10776381051085 0.5 L 346.9850588710217 0.5 L 346.9850588710217 3.5 L 353.9850588710217 0 L 346.9850588710217 -3.5 L 346.9850588710217 -0.5 L 214.10776381051085 -0.5 Z"/><text text-anchor="middle" pointer-events="none" font-size="8px" fill="#000000" x="185.99252943551085" y="3" transform="rotate(180 185.99252943551085 0)" font-family="Helvetica Neue, Helvetica, Arial, sans-serif">PURCHASED</text></g><g class="relationship" transform="translate(-876.7895306350321 -413.95651203039796) rotate(513.2236383157992)"><path class="b-outline" fill="#A5ABB6" stroke="none" d="M 25 0.5 L 135.32747101913645 0.5 L 135.32747101913645 -0.5 L 25 -0.5 Z M 191.55793976913645 0.5 L 301.8854107882729 0.5 L 301.8854107882729 3.5 L 308.8854107882729 0 L 301.8854107882729 -3.5 L 301.8854107882729 -0.5 L 191.55793976913645 -0.5 Z"/><text text-anchor="middle" pointer-events="none" font-size="8px" fill="#000000" x="163.44270539413645" y="3" transform="rotate(180 163.44270539413645 0)" font-family="Helvetica Neue, Helvetica, Arial, sans-serif">PURCHASED</text></g><g class="relationship" transform="translate(-876.7895306350321 -413.95651203039796) rotate(528.9389191781532)"><path class="b-outline" fill="#A5ABB6" stroke="none" d="M 25 0.5 L 122.00384072806855 0.5 L 122.00384072806855 -0.5 L 25 -0.5 Z M 178.23430947806855 0.5 L 275.2381502061371 0.5 L 275.2381502061371 3.5 L 282.2381502061371 0 L 275.2381502061371 -3.5 L 275.2381502061371 -0.5 L 178.23430947806855 -0.5 Z"/><text text-anchor="middle" pointer-events="none" font-size="8px" fill="#000000" x="150.11907510306855" y="3" transform="rotate(180 150.11907510306855 0)" font-family="Helvetica Neue, Helvetica, Arial, sans-serif">PURCHASED</text></g><g class="relationship" transform="translate(-876.7895306350321 -413.95651203039796) rotate(412.6028497577512)"><path class="b-outline" fill="#A5ABB6" stroke="none" d="M 25 0.5 L 147.9129998056759 0.5 L 147.9129998056759 -0.5 L 25 -0.5 Z M 204.1434685556759 0.5 L 327.0564683613518 0.5 L 327.0564683613518 3.5 L 334.0564683613518 0 L 327.0564683613518 -3.5 L 327.0564683613518 -0.5 L 204.1434685556759 -0.5 Z"/><text text-anchor="middle" pointer-events="none" font-size="8px" fill="#000000" x="176.0282341806759" y="3" font-family="Helvetica Neue, Helvetica, Arial, sans-serif">PURCHASED</text></g><g class="relationship" transform="translate(-1248.6235049018685 217.56281701193006) rotate(507.0276429554417)"><path class="b-outline" fill="#A5ABB6" stroke="none" d="M 25 0.5 L 146.971655375248 0.5 L 146.971655375248 -0.5 L 25 -0.5 Z M 203.202124125248 0.5 L 325.173779500496 0.5 L 325.173779500496 3.5 L 332.173779500496 0 L 325.173779500496 -3.5 L 325.173779500496 -0.5 L 203.202124125248 -0.5 Z"/><text text-anchor="middle" pointer-events="none" font-size="8px" fill="#000000" x="175.086889750248" y="3" transform="rotate(180 175.086889750248 0)" font-family="Helvetica Neue, Helvetica, Arial, sans-serif">PURCHASED</text></g><g class="relationship" transform="translate(-1248.6235049018685 217.56281701193006) rotate(185.89965730817977)"><path class="b-outline" fill="#A5ABB6" stroke="none" d="M 25 0.5 L 113.53961515484627 0.5 L 113.53961515484627 -0.5 L 25 -0.5 Z M 169.77008390484627 0.5 L 258.30969905969255 0.5 L 258.30969905969255 3.5 L 265.30969905969255 0 L 258.30969905969255 -3.5 L 258.30969905969255 -0.5 L 169.77008390484627 -0.5 Z"/><text text-anchor="middle" pointer-events="none" font-size="8px" fill="#000000" x="141.65484952984627" y="3" transform="rotate(180 141.65484952984627 0)" font-family="Helvetica Neue, Helvetica, Arial, sans-serif">PURCHASED</text></g><g class="relationship" transform="translate(-1248.6235049018685 217.56281701193006) rotate(205.30541573438757)"><path class="b-outline" fill="#A5ABB6" stroke="none" d="M 25 0.5 L 200.6159656147628 0.5 L 200.6159656147628 -0.5 L 25 -0.5 Z M 256.8464343647628 0.5 L 432.4623999795256 0.5 L 432.4623999795256 3.5 L 439.4623999795256 0 L 432.4623999795256 -3.5 L 432.4623999795256 -0.5 L 256.8464343647628 -0.5 Z"/><text text-anchor="middle" pointer-events="none" font-size="8px" fill="#000000" x="228.7311999897628" y="3" transform="rotate(180 228.7311999897628 0)" font-family="Helvetica Neue, Helvetica, Arial, sans-serif">PURCHASED</text></g><g class="relationship" transform="translate(-1248.6235049018685 217.56281701193006) rotate(361.45648211670823)"><path class="b-outline" fill="#A5ABB6" stroke="none" d="M 25 0.5 L 75.86504942502641 0.5 L 75.86504942502641 -0.5 L 25 -0.5 Z M 132.09551817502643 0.5 L 182.96056760005283 0.5 L 182.96056760005283 3.5 L 189.96056760005283 0 L 182.96056760005283 -3.5 L 182.96056760005283 -0.5 L 132.09551817502643 -0.5 Z"/><text text-anchor="middle" pointer-events="none" font-size="8px" fill="#000000" x="103.98028380002641" y="3" font-family="Helvetica Neue, Helvetica, Arial, sans-serif">PURCHASED</text></g><g class="relationship" transform="translate(-1239.6645246325627 72.0112085252236) rotate(518.7616356962288)"><path class="b-outline" fill="#A5ABB6" stroke="none" d="M 25 0.5 L 128.09775681790225 0.5 L 128.09775681790225 -0.5 L 25 -0.5 Z M 184.32822556790225 0.5 L 287.4259823858045 0.5 L 287.4259823858045 3.5 L 294.4259823858045 0 L 287.4259823858045 -3.5 L 287.4259823858045 -0.5 L 184.32822556790225 -0.5 Z"/><text text-anchor="middle" pointer-events="none" font-size="8px" fill="#000000" x="156.21299119290225" y="3" transform="rotate(180 156.21299119290225 0)" font-family="Helvetica Neue, Helvetica, Arial, sans-serif">PURCHASED</text></g><g class="relationship" transform="translate(-1239.6645246325627 72.0112085252236) rotate(187.04254387170533)"><path class="b-outline" fill="#A5ABB6" stroke="none" d="M 25 0.5 L 184.4411109267809 0.5 L 184.4411109267809 -0.5 L 25 -0.5 Z M 240.6715796767809 0.5 L 400.1126906035618 0.5 L 400.1126906035618 3.5 L 407.1126906035618 0 L 400.1126906035618 -3.5 L 400.1126906035618 -0.5 L 240.6715796767809 -0.5 Z"/><text text-anchor="middle" pointer-events="none" font-size="8px" fill="#000000" x="212.5563453017809" y="3" transform="rotate(180 212.5563453017809 0)" font-family="Helvetica Neue, Helvetica, Arial, sans-serif">PURCHASED</text></g><g class="relationship" transform="translate(-1239.6645246325627 72.0112085252236) rotate(201.96666367492355)"><path class="b-outline" fill="#A5ABB6" stroke="none" d="M 25 0.5 L 282.0284114864104 0.5 L 282.0284114864104 -0.5 L 25 -0.5 Z M 338.2588802364104 0.5 L 595.2872917228208 0.5 L 595.2872917228208 3.5 L 602.2872917228208 0 L 595.2872917228208 -3.5 L 595.2872917228208 -0.5 L 338.2588802364104 -0.5 Z"/><text text-anchor="middle" pointer-events="none" font-size="8px" fill="#000000" x="310.1436458614104" y="3" transform="rotate(180 310.1436458614104 0)" font-family="Helvetica Neue, Helvetica, Arial, sans-serif">PURCHASED</text></g><g class="relationship" transform="translate(-1239.6645246325627 72.0112085252236) rotate(365.6774856485774)"><path class="b-outline" fill="#A5ABB6" stroke="none" d="M 25 0.5 L 60.806055469584166 0.5 L 60.806055469584166 -0.5 L 25 -0.5 Z M 117.03652421958417 0.5 L 152.84257968916833 0.5 L 152.84257968916833 3.5 L 159.84257968916833 0 L 152.84257968916833 -3.5 L 152.84257968916833 -0.5 L 117.03652421958417 -0.5 Z"/><text text-anchor="middle" pointer-events="none" font-size="8px" fill="#000000" x="88.92128984458417" y="3" font-family="Helvetica Neue, Helvetica, Arial, sans-serif">PURCHASED</text></g><g class="relationship" transform="translate(-1273.8844947971706 -22.599300641896107) rotate(533.9779995600456)"><path class="b-outline" fill="#A5ABB6" stroke="none" d="M 25 0.5 L 166.79595961128987 0.5 L 166.79595961128987 -0.5 L 25 -0.5 Z M 223.02642836128987 0.5 L 364.82238797257975 0.5 L 364.82238797257975 3.5 L 371.82238797257975 0 L 364.82238797257975 -3.5 L 364.82238797257975 -0.5 L 223.02642836128987 -0.5 Z"/><text text-anchor="middle" pointer-events="none" font-size="8px" fill="#000000" x="194.91119398628987" y="3" transform="rotate(180 194.91119398628987 0)" font-family="Helvetica Neue, Helvetica, Arial, sans-serif">PURCHASED</text></g><g class="relationship" transform="translate(-1273.8844947971706 -22.599300641896107) rotate(194.34657063500913)"><path class="b-outline" fill="#A5ABB6" stroke="none" d="M 25 0.5 L 250.96064493354072 0.5 L 250.96064493354072 -0.5 L 25 -0.5 Z M 307.1911136835407 0.5 L 533.1517586170814 0.5 L 533.1517586170814 3.5 L 540.1517586170814 0 L 533.1517586170814 -3.5 L 533.1517586170814 -0.5 L 307.1911136835407 -0.5 Z"/><text text-anchor="middle" pointer-events="none" font-size="8px" fill="#000000" x="279.0758793085407" y="3" transform="rotate(180 279.0758793085407 0)" font-family="Helvetica Neue, Helvetica, Arial, sans-serif">PURCHASED</text></g><g class="relationship" transform="translate(-1273.8844947971706 -22.599300641896107) rotate(272.5984495780818)"><path class="b-outline" fill="#A5ABB6" stroke="none" d="M 25 0.5 L 170.07822446660975 0.5 L 170.07822446660975 -0.5 L 25 -0.5 Z M 226.30869321660975 0.5 L 371.3869176832195 0.5 L 371.3869176832195 3.5 L 378.3869176832195 0 L 371.3869176832195 -3.5 L 371.3869176832195 -0.5 L 226.30869321660975 -0.5 Z"/><text text-anchor="middle" pointer-events="none" font-size="8px" fill="#000000" x="198.19345884160975" y="3" font-family="Helvetica Neue, Helvetica, Arial, sans-serif">PURCHASED</text></g><g class="relationship" transform="translate(-1273.8844947971706 -22.599300641896107) rotate(355.966056636487)"><path class="b-outline" fill="#A5ABB6" stroke="none" d="M 25 0.5 L 49.14159295109543 0.5 L 49.14159295109543 -0.5 L 25 -0.5 Z M 105.37206170109543 0.5 L 129.51365465219087 0.5 L 129.51365465219087 3.5 L 136.51365465219087 0 L 129.51365465219087 -3.5 L 129.51365465219087 -0.5 L 105.37206170109543 -0.5 Z"/><text text-anchor="middle" pointer-events="none" font-size="8px" fill="#000000" x="77.25682732609543" y="3" font-family="Helvetica Neue, Helvetica, Arial, sans-serif">PURCHASED</text></g><g class="relationship" transform="translate(-1385.0281984860476 -218.8582538764868) rotate(532.6586780137728)"><path class="b-outline" fill="#A5ABB6" stroke="none" d="M 25 0.5 L 188.37996552267853 0.5 L 188.37996552267853 -0.5 L 25 -0.5 Z M 244.61043427267853 0.5 L 407.99039979535706 0.5 L 407.99039979535706 3.5 L 414.99039979535706 0 L 407.99039979535706 -3.5 L 407.99039979535706 -0.5 L 244.61043427267853 -0.5 Z"/><text text-anchor="middle" pointer-events="none" font-size="8px" fill="#000000" x="216.49519989767853" y="3" transform="rotate(180 216.49519989767853 0)" font-family="Helvetica Neue, Helvetica, Arial, sans-serif">PURCHASED</text></g><g class="relationship" transform="translate(-1385.0281984860476 -218.8582538764868) rotate(302.05237494256386)"><path class="b-outline" fill="#A5ABB6" stroke="none" d="M 25 0.5 L 90.33034322115984 0.5 L 90.33034322115984 -0.5 L 25 -0.5 Z M 146.56081197115984 0.5 L 211.89115519231967 0.5 L 211.89115519231967 3.5 L 218.89115519231967 0 L 211.89115519231967 -3.5 L 211.89115519231967 -0.5 L 146.56081197115984 -0.5 Z"/><text text-anchor="middle" pointer-events="none" font-size="8px" fill="#000000" x="118.44557759615984" y="3" font-family="Helvetica Neue, Helvetica, Arial, sans-serif">PURCHASED</text></g><g class="relationship" transform="translate(-1385.0281984860476 -218.8582538764868) rotate(347.9974112177367)"><path class="b-outline" fill="#A5ABB6" stroke="none" d="M 25 0.5 L 75.81089466730614 0.5 L 75.81089466730614 -0.5 L 25 -0.5 Z M 132.04136341730614 0.5 L 182.8522580846123 0.5 L 182.8522580846123 3.5 L 189.8522580846123 0 L 182.8522580846123 -3.5 L 182.8522580846123 -0.5 L 132.04136341730614 -0.5 Z"/><text text-anchor="middle" pointer-events="none" font-size="8px" fill="#000000" x="103.92612904230614" y="3" font-family="Helvetica Neue, Helvetica, Arial, sans-serif">PURCHASED</text></g><g class="relationship" transform="translate(-1385.0281984860476 -218.8582538764868) rotate(376.4294697627712)"><path class="b-outline" fill="#A5ABB6" stroke="none" d="M 25 0.5 L 97.09931447189092 0.5 L 97.09931447189092 -0.5 L 25 -0.5 Z M 153.32978322189092 0.5 L 225.42909769378184 0.5 L 225.42909769378184 3.5 L 232.42909769378184 0 L 225.42909769378184 -3.5 L 225.42909769378184 -0.5 L 153.32978322189092 -0.5 Z"/><text text-anchor="middle" pointer-events="none" font-size="8px" fill="#000000" x="125.21454884689092" y="3" font-family="Helvetica Neue, Helvetica, Arial, sans-serif">PURCHASED</text></g><g class="relationship" transform="translate(-331.95958752171356 -96.91684516442899) rotate(199.58691169591611)"><path class="b-outline" fill="#A5ABB6" stroke="none" d="M 25 0.5 L 458.5681790708216 0.5 L 458.5681790708216 -0.5 L 25 -0.5 Z M 514.7986478208215 0.5 L 948.3668268916432 0.5 L 948.3668268916432 3.5 L 955.3668268916432 0 L 948.3668268916432 -3.5 L 948.3668268916432 -0.5 L 514.7986478208215 -0.5 Z"/><text text-anchor="middle" pointer-events="none" font-size="8px" fill="#000000" x="486.6834134458216" y="3" transform="rotate(180 486.6834134458216 0)" font-family="Helvetica Neue, Helvetica, Arial, sans-serif">PURCHASED</text></g><g class="relationship" transform="translate(-331.95958752171356 -96.91684516442899) rotate(191.18167455795935)"><path class="b-outline" fill="#A5ABB6" stroke="none" d="M 25 0.5 L 397.99669489199545 0.5 L 397.99669489199545 -0.5 L 25 -0.5 Z M 454.22716364199545 0.5 L 827.2238585339909 0.5 L 827.2238585339909 3.5 L 834.2238585339909 0 L 827.2238585339909 -3.5 L 827.2238585339909 -0.5 L 454.22716364199545 -0.5 Z"/><text text-anchor="middle" pointer-events="none" font-size="8px" fill="#000000" x="426.11192926699545" y="3" transform="rotate(180 426.11192926699545 0)" font-family="Helvetica Neue, Helvetica, Arial, sans-serif">PURCHASED</text></g><g class="relationship" transform="translate(-331.95958752171356 -96.91684516442899) rotate(196.95888153415905)"><path class="b-outline" fill="#A5ABB6" stroke="none" d="M 25 0.5 L 410.8039577756612 0.5 L 410.8039577756612 -0.5 L 25 -0.5 Z M 467.0344265256612 0.5 L 852.8383843013224 0.5 L 852.8383843013224 3.5 L 859.8383843013224 0 L 852.8383843013224 -3.5 L 852.8383843013224 -0.5 L 467.0344265256612 -0.5 Z"/><text text-anchor="middle" pointer-events="none" font-size="8px" fill="#000000" x="438.9191921506612" y="3" transform="rotate(180 438.9191921506612 0)" font-family="Helvetica Neue, Helvetica, Arial, sans-serif">PURCHASED</text></g><g class="relationship" transform="translate(-331.95958752171356 -96.91684516442899) rotate(360.3224687825494)"><path class="b-outline" fill="#A5ABB6" stroke="none" d="M 25 0.5 L 42.13609695029551 0.5 L 42.13609695029551 -0.5 L 25 -0.5 Z M 98.36656570029551 0.5 L 115.50266265059102 0.5 L 115.50266265059102 3.5 L 122.50266265059102 0 L 115.50266265059102 -3.5 L 115.50266265059102 -0.5 L 98.36656570029551 -0.5 Z"/><text text-anchor="middle" pointer-events="none" font-size="8px" fill="#000000" x="70.25133132529551" y="3" font-family="Helvetica Neue, Helvetica, Arial, sans-serif">PURCHASED</text></g><g class="relationship" transform="translate(-707.0526732646722 -307.18108919489293) rotate(534.6702920997441)"><path class="b-outline" fill="#A5ABB6" stroke="none" d="M 25 0.5 L 203.31058895772628 0.5 L 203.31058895772628 -0.5 L 25 -0.5 Z M 259.5410577077263 0.5 L 437.85164666545256 0.5 L 437.85164666545256 3.5 L 444.85164666545256 0 L 437.85164666545256 -3.5 L 437.85164666545256 -0.5 L 259.5410577077263 -0.5 Z"/><text text-anchor="middle" pointer-events="none" font-size="8px" fill="#000000" x="231.42582333272628" y="3" transform="rotate(180 231.42582333272628 0)" font-family="Helvetica Neue, Helvetica, Arial, sans-serif">PURCHASED</text></g><g class="relationship" transform="translate(-707.0526732646722 -307.18108919489293) rotate(185.79525009598842)"><path class="b-outline" fill="#A5ABB6" stroke="none" d="M 25 0.5 L 205.22901160955314 0.5 L 205.22901160955314 -0.5 L 25 -0.5 Z M 261.45948035955314 0.5 L 441.6884919691063 0.5 L 441.6884919691063 3.5 L 448.6884919691063 0 L 441.6884919691063 -3.5 L 441.6884919691063 -0.5 L 261.45948035955314 -0.5 Z"/><text text-anchor="middle" pointer-events="none" font-size="8px" fill="#000000" x="233.34424598455314" y="3" transform="rotate(180 233.34424598455314 0)" font-family="Helvetica Neue, Helvetica, Arial, sans-serif">PURCHASED</text></g><g class="relationship" transform="translate(-707.0526732646722 -307.18108919489293) rotate(434.84767736048934)"><path class="b-outline" fill="#A5ABB6" stroke="none" d="M 25 0.5 L 60.83647672764218 0.5 L 60.83647672764218 -0.5 L 25 -0.5 Z M 117.06694547764218 0.5 L 152.90342220528436 0.5 L 152.90342220528436 3.5 L 159.90342220528436 0 L 152.90342220528436 -3.5 L 152.90342220528436 -0.5 L 117.06694547764218 -0.5 Z"/><text text-anchor="middle" pointer-events="none" font-size="8px" fill="#000000" x="88.95171110264218" y="3" font-family="Helvetica Neue, Helvetica, Arial, sans-serif">PURCHASED</text></g><g class="relationship" transform="translate(-707.0526732646722 -307.18108919489293) rotate(356.8882473154955)"><path class="b-outline" fill="#A5ABB6" stroke="none" d="M 25 0.5 L 53.93713203207186 0.5 L 53.93713203207186 -0.5 L 25 -0.5 Z M 110.16760078207186 0.5 L 139.10473281414372 0.5 L 139.10473281414372 3.5 L 146.10473281414372 0 L 139.10473281414372 -3.5 L 139.10473281414372 -0.5 L 110.16760078207186 -0.5 Z"/><text text-anchor="middle" pointer-events="none" font-size="8px" fill="#000000" x="82.05236640707186" y="3" font-family="Helvetica Neue, Helvetica, Arial, sans-serif">PURCHASED</text></g><g class="relationship" transform="translate(-811.6332053880501 -130.39020584008932) rotate(211.49033787790586)"><path class="b-outline" fill="#A5ABB6" stroke="none" d="M 25 0.5 L 183.39287121170085 0.5 L 183.39287121170085 -0.5 L 25 -0.5 Z M 239.62333996170085 0.5 L 398.0162111734017 0.5 L 398.0162111734017 3.5 L 405.0162111734017 0 L 398.0162111734017 -3.5 L 398.0162111734017 -0.5 L 239.62333996170085 -0.5 Z"/><text text-anchor="middle" pointer-events="none" font-size="8px" fill="#000000" x="211.50810558670085" y="3" transform="rotate(180 211.50810558670085 0)" font-family="Helvetica Neue, Helvetica, Arial, sans-serif">PURCHASED</text></g><g class="relationship" transform="translate(-811.6332053880501 -130.39020584008932) rotate(360.6310597343306)"><path class="b-outline" fill="#A5ABB6" stroke="none" d="M 25 0.5 L 44.84525893341602 0.5 L 44.84525893341602 -0.5 L 25 -0.5 Z M 101.07572768341602 0.5 L 120.92098661683204 0.5 L 120.92098661683204 3.5 L 127.92098661683204 0 L 120.92098661683204 -3.5 L 120.92098661683204 -0.5 L 101.07572768341602 -0.5 Z"/><text text-anchor="middle" pointer-events="none" font-size="8px" fill="#000000" x="72.96049330841602" y="3" font-family="Helvetica Neue, Helvetica, Arial, sans-serif">PURCHASED</text></g><g class="relationship" transform="translate(-811.6332053880501 -130.39020584008932) rotate(482.14665487769327)"><path class="b-outline" fill="#A5ABB6" stroke="none" d="M 25 0.5 L 177.08999734353785 0.5 L 177.08999734353785 -0.5 L 25 -0.5 Z M 233.32046609353785 0.5 L 385.4104634370757 0.5 L 385.4104634370757 3.5 L 392.4104634370757 0 L 385.4104634370757 -3.5 L 385.4104634370757 -0.5 L 233.32046609353785 -0.5 Z"/><text text-anchor="middle" pointer-events="none" font-size="8px" fill="#000000" x="205.20523171853785" y="3" transform="rotate(180 205.20523171853785 0)" font-family="Helvetica Neue, Helvetica, Arial, sans-serif">PURCHASED</text></g><g class="relationship" transform="translate(-811.6332053880501 -130.39020584008932) rotate(375.7116224003797)"><path class="b-outline" fill="#A5ABB6" stroke="none" d="M 25 0.5 L 191.27214510509324 0.5 L 191.27214510509324 -0.5 L 25 -0.5 Z M 247.50261385509324 0.5 L 413.7747589601865 0.5 L 413.7747589601865 3.5 L 420.7747589601865 0 L 413.7747589601865 -3.5 L 413.7747589601865 -0.5 L 247.50261385509324 -0.5 Z"/><text text-anchor="middle" pointer-events="none" font-size="8px" fill="#000000" x="219.38737948009324" y="3" font-family="Helvetica Neue, Helvetica, Arial, sans-serif">PURCHASED</text></g><g class="relationship" transform="translate(-803.8103844040606 199.86235500518978) rotate(293.8252497253209)"><path class="b-outline" fill="#A5ABB6" stroke="none" d="M 25 0.5 L 147.97312968693274 0.5 L 147.97312968693274 -0.5 L 25 -0.5 Z M 204.20359843693274 0.5 L 327.1767281238655 0.5 L 327.1767281238655 3.5 L 334.1767281238655 0 L 327.1767281238655 -3.5 L 327.1767281238655 -0.5 L 204.20359843693274 -0.5 Z"/><text text-anchor="middle" pointer-events="none" font-size="8px" fill="#000000" x="176.08836406193274" y="3" font-family="Helvetica Neue, Helvetica, Arial, sans-serif">PURCHASED</text></g><g class="relationship" transform="translate(-803.8103844040606 199.86235500518978) rotate(534.2469580983283)"><path class="b-outline" fill="#A5ABB6" stroke="none" d="M 25 0.5 L 83.9277340150482 0.5 L 83.9277340150482 -0.5 L 25 -0.5 Z M 140.1582027650482 0.5 L 199.0859367800964 0.5 L 199.0859367800964 3.5 L 206.0859367800964 0 L 199.0859367800964 -3.5 L 199.0859367800964 -0.5 L 140.1582027650482 -0.5 Z"/><text text-anchor="middle" pointer-events="none" font-size="8px" fill="#000000" x="112.0429683900482" y="3" transform="rotate(180 112.0429683900482 0)" font-family="Helvetica Neue, Helvetica, Arial, sans-serif">PURCHASED</text></g><g class="relationship" transform="translate(-803.8103844040606 199.86235500518978) rotate(203.5052997603442)"><path class="b-outline" fill="#A5ABB6" stroke="none" d="M 25 0.5 L 105.74132627683696 0.5 L 105.74132627683696 -0.5 L 25 -0.5 Z M 161.97179502683696 0.5 L 242.71312130367392 0.5 L 242.71312130367392 3.5 L 249.71312130367392 0 L 242.71312130367392 -3.5 L 242.71312130367392 -0.5 L 161.97179502683696 -0.5 Z"/><text text-anchor="middle" pointer-events="none" font-size="8px" fill="#000000" x="133.85656065183696" y="3" transform="rotate(180 133.85656065183696 0)" font-family="Helvetica Neue, Helvetica, Arial, sans-serif">PURCHASED</text></g><g class="relationship" transform="translate(-803.8103844040606 199.86235500518978) rotate(374.5544306159005)"><path class="b-outline" fill="#A5ABB6" stroke="none" d="M 25 0.5 L 56.01780092491521 0.5 L 56.01780092491521 -0.5 L 25 -0.5 Z M 112.2482696749152 0.5 L 143.2660705998304 0.5 L 143.2660705998304 3.5 L 150.2660705998304 0 L 143.2660705998304 -3.5 L 143.2660705998304 -0.5 L 112.2482696749152 -0.5 Z"/><text text-anchor="middle" pointer-events="none" font-size="8px" fill="#000000" x="84.1330352999152" y="3" font-family="Helvetica Neue, Helvetica, Arial, sans-serif">PURCHASED</text></g><g class="relationship" transform="translate(-711.6715160552552 71.69503400604776) rotate(514.831871459153)"><path class="b-outline" fill="#A5ABB6" stroke="none" d="M 25 0.5 L 146.30641389399494 0.5 L 146.30641389399494 -0.5 L 25 -0.5 Z M 202.53688264399494 0.5 L 323.8432965379899 0.5 L 323.8432965379899 3.5 L 330.8432965379899 0 L 323.8432965379899 -3.5 L 323.8432965379899 -0.5 L 202.53688264399494 -0.5 Z"/><text text-anchor="middle" pointer-events="none" font-size="8px" fill="#000000" x="174.42164826899494" y="3" transform="rotate(180 174.42164826899494 0)" font-family="Helvetica Neue, Helvetica, Arial, sans-serif">PURCHASED</text></g><g class="relationship" transform="translate(-711.6715160552552 71.69503400604776) rotate(536.905156168423)"><path class="b-outline" fill="#A5ABB6" stroke="none" d="M 25 0.5 L 140.66461526916945 0.5 L 140.66461526916945 -0.5 L 25 -0.5 Z M 196.89508401916945 0.5 L 312.5596992883389 0.5 L 312.5596992883389 3.5 L 319.5596992883389 0 L 312.5596992883389 -3.5 L 312.5596992883389 -0.5 L 196.89508401916945 -0.5 Z"/><text text-anchor="middle" pointer-events="none" font-size="8px" fill="#000000" x="168.77984964416945" y="3" transform="rotate(180 168.77984964416945 0)" font-family="Helvetica Neue, Helvetica, Arial, sans-serif">PURCHASED</text></g><g class="relationship" transform="translate(-711.6715160552552 71.69503400604776) rotate(194.75744461485584)"><path class="b-outline" fill="#A5ABB6" stroke="none" d="M 25 0.5 L 175.77573582173568 0.5 L 175.77573582173568 -0.5 L 25 -0.5 Z M 232.00620457173568 0.5 L 382.78194039347136 0.5 L 382.78194039347136 3.5 L 389.78194039347136 0 L 382.78194039347136 -3.5 L 382.78194039347136 -0.5 L 232.00620457173568 -0.5 Z"/><text text-anchor="middle" pointer-events="none" font-size="8px" fill="#000000" x="203.89097019673568" y="3" transform="rotate(180 203.89097019673568 0)" font-family="Helvetica Neue, Helvetica, Arial, sans-serif">PURCHASED</text></g><g class="relationship" transform="translate(-711.6715160552552 71.69503400604776) rotate(369.1897819460855)"><path class="b-outline" fill="#A5ABB6" stroke="none" d="M 25 0.5 L 54.07378314186299 0.5 L 54.07378314186299 -0.5 L 25 -0.5 Z M 110.30425189186299 0.5 L 139.37803503372598 0.5 L 139.37803503372598 3.5 L 146.37803503372598 0 L 139.37803503372598 -3.5 L 139.37803503372598 -0.5 L 110.30425189186299 -0.5 Z"/><text text-anchor="middle" pointer-events="none" font-size="8px" fill="#000000" x="82.18901751686299" y="3" font-family="Helvetica Neue, Helvetica, Arial, sans-serif">PURCHASED</text></g><g class="relationship" transform="translate(-961.2226907693636 -133.03528883669614) rotate(472.9362493161067)"><path class="b-outline" fill="#A5ABB6" stroke="none" d="M 25 0.5 L 89.6374934012069 0.5 L 89.6374934012069 -0.5 L 25 -0.5 Z M 145.86796215120688 0.5 L 210.5054555524138 0.5 L 210.5054555524138 3.5 L 217.5054555524138 0 L 210.5054555524138 -3.5 L 210.5054555524138 -0.5 L 145.86796215120688 -0.5 Z"/><text text-anchor="middle" pointer-events="none" font-size="8px" fill="#000000" x="117.7527277762069" y="3" transform="rotate(180 117.7527277762069 0)" font-family="Helvetica Neue, Helvetica, Arial, sans-serif">PURCHASED</text></g><g class="relationship" transform="translate(-961.2226907693636 -133.03528883669614) rotate(506.8255543385962)"><path class="b-outline" fill="#A5ABB6" stroke="none" d="M 25 0.5 L 58.914491978611025 0.5 L 58.914491978611025 -0.5 L 25 -0.5 Z M 115.14496072861103 0.5 L 149.05945270722205 0.5 L 149.05945270722205 3.5 L 156.05945270722205 0 L 149.05945270722205 -3.5 L 149.05945270722205 -0.5 L 115.14496072861103 -0.5 Z"/><text text-anchor="middle" pointer-events="none" font-size="8px" fill="#000000" x="87.02972635361103" y="3" transform="rotate(180 87.02972635361103 0)" font-family="Helvetica Neue, Helvetica, Arial, sans-serif">PURCHASED</text></g><g class="relationship" transform="translate(-961.2226907693636 -133.03528883669614) rotate(184.20748569149498)"><path class="b-outline" fill="#A5ABB6" stroke="none" d="M 25 0.5 L 57.067571419741284 0.5 L 57.067571419741284 -0.5 L 25 -0.5 Z M 113.29804016974128 0.5 L 145.36561158948257 0.5 L 145.36561158948257 3.5 L 152.36561158948257 0 L 145.36561158948257 -3.5 L 145.36561158948257 -0.5 L 113.29804016974128 -0.5 Z"/><text text-anchor="middle" pointer-events="none" font-size="8px" fill="#000000" x="85.18280579474128" y="3" transform="rotate(180 85.18280579474128 0)" font-family="Helvetica Neue, Helvetica, Arial, sans-serif">PURCHASED</text></g><g class="relationship" transform="translate(-961.2226907693636 -133.03528883669614) rotate(314.20278025065454)"><path class="b-outline" fill="#A5ABB6" stroke="none" d="M 25 0.5 L 39.248587420454854 0.5 L 39.248587420454854 -0.5 L 25 -0.5 Z M 95.47905617045485 0.5 L 109.72764359090971 0.5 L 109.72764359090971 3.5 L 116.72764359090971 0 L 109.72764359090971 -3.5 L 109.72764359090971 -0.5 L 95.47905617045485 -0.5 Z"/><text text-anchor="middle" pointer-events="none" font-size="8px" fill="#000000" x="67.36382179545485" y="3" font-family="Helvetica Neue, Helvetica, Arial, sans-serif">PURCHASED</text></g></g><g class="layer nodes"><g class="node" aria-label="graph-node6" transform="translate(-1273.8844947971706,-22.599300641896107)"><circle class="b-outline" cx="0" cy="0" r="25" fill="#C990C0" stroke="#b261a5" stroke-width="2px"/><text class="caption" text-anchor="middle" pointer-events="none" x="0" y="5" font-size="10px" fill="#FFFFFF" font-family="Helvetica Neue, Helvetica, Arial, sans-serif"> Hannah</text></g><g class="node" aria-label="graph-node7" transform="translate(-1385.0281984860476,-218.8582538764868)"><circle class="b-outline" cx="0" cy="0" r="25" fill="#C990C0" stroke="#b261a5" stroke-width="2px"/><text class="caption" text-anchor="middle" pointer-events="none" x="0" y="5" font-size="10px" fill="#FFFFFF" font-family="Helvetica Neue, Helvetica, Arial, sans-serif"> Ivan</text></g><g class="node" aria-label="graph-node8" transform="translate(-331.95958752171356,-96.91684516442899)"><circle class="b-outline" cx="0" cy="0" r="25" fill="#C990C0" stroke="#b261a5" stroke-width="2px"/><text class="caption" text-anchor="middle" pointer-events="none" x="0" y="5" font-size="10px" fill="#FFFFFF" font-family="Helvetica Neue, Helvetica, Arial, sans-serif"> Jessica</text></g><g class="node" aria-label="graph-node9" transform="translate(-707.0526732646722,-307.18108919489293)"><circle class="b-outline" cx="0" cy="0" r="25" fill="#C990C0" stroke="#b261a5" stroke-width="2px"/><text class="caption" text-anchor="middle" pointer-events="none" x="0" y="5" font-size="10px" fill="#FFFFFF" font-family="Helvetica Neue, Helvetica, Arial, sans-serif"> Kevin</text></g><g class="node" aria-label="graph-node10" transform="translate(-811.6332053880501,-130.39020584008932)"><circle class="b-outline" cx="0" cy="0" r="25" fill="#C990C0" stroke="#b261a5" stroke-width="2px"/><text class="caption" text-anchor="middle" pointer-events="none" x="0" y="5" font-size="10px" fill="#FFFFFF" font-family="Helvetica Neue, Helvetica, Arial, sans-serif"> Lily</text></g><g class="node" aria-label="graph-node11" transform="translate(-803.8103844040606,199.86235500518978)"><circle class="b-outline" cx="0" cy="0" r="25" fill="#C990C0" stroke="#b261a5" stroke-width="2px"/><text class="caption" text-anchor="middle" pointer-events="none" x="0" y="5" font-size="10px" fill="#FFFFFF" font-family="Helvetica Neue, Helvetica, Arial, sans-serif"> Michael</text></g><g class="node" aria-label="graph-node12" transform="translate(-711.6715160552552,71.69503400604776)"><circle class="b-outline" cx="0" cy="0" r="25" fill="#C990C0" stroke="#b261a5" stroke-width="2px"/><text class="caption" text-anchor="middle" pointer-events="none" x="0" y="5" font-size="10px" fill="#FFFFFF" font-family="Helvetica Neue, Helvetica, Arial, sans-serif"> Natalie</text></g><g class="node" aria-label="graph-node13" transform="translate(-961.2226907693636,-133.03528883669614)"><circle class="b-outline" cx="0" cy="0" r="25" fill="#C990C0" stroke="#b261a5" stroke-width="2px"/><text class="caption" text-anchor="middle" pointer-events="none" x="0" y="5" font-size="10px" fill="#FFFFFF" font-family="Helvetica Neue, Helvetica, Arial, sans-serif"> Oliver</text></g><g class="node" aria-label="graph-node72" transform="translate(-1548.2684599797788,411.94905535977733)"><circle class="b-outline" cx="0" cy="0" r="25" fill="#F79767" stroke="#f36924" stroke-width="2px"/><text class="caption" text-anchor="middle" pointer-events="none" x="0" y="5" font-size="10px" fill="#FFFFFF" font-family="Helvetica Neue, Helvetica, Arial, sans-serif"> Book A</text></g><g class="node" aria-label="graph-node73" transform="translate(-1537.3955588738509,187.7228737658085)"><circle class="b-outline" cx="0" cy="0" r="25" fill="#F79767" stroke="#f36924" stroke-width="2px"/><text class="caption" text-anchor="middle" pointer-events="none" x="0" y="5" font-size="10px" fill="#FFFFFF" font-family="Helvetica Neue, Helvetica, Arial, sans-serif"> Book B</text></g><g class="node" aria-label="graph-node74" transform="translate(-1668.5170919138225,19.031467898054643)"><circle class="b-outline" cx="0" cy="0" r="25" fill="#F79767" stroke="#f36924" stroke-width="2px"/><text class="caption" text-anchor="middle" pointer-events="none" x="0" y="5" font-size="10px" fill="#FFFFFF" font-family="Helvetica Neue, Helvetica, Arial, sans-serif"> Book C</text></g><g class="node" aria-label="graph-node75" transform="translate(-1821.4117967976877,-162.63630943605227)"><circle class="b-outline" cx="0" cy="0" r="25" fill="#F79767" stroke="#f36924" stroke-width="2px"/><text class="caption" text-anchor="middle" pointer-events="none" x="0" y="5" font-size="10px" fill="#FFFFFF" font-family="Helvetica Neue, Helvetica, Arial, sans-serif"> Book D</text></g><g class="node" aria-label="graph-node76" transform="translate(-1255.5965632454113,-425.5714546643877)"><circle class="b-outline" cx="0" cy="0" r="25" fill="#F79767" stroke="#f36924" stroke-width="2px"/><text class="caption" text-anchor="middle" pointer-events="none" x="0" y="5" font-size="10px" fill="#FFFFFF" font-family="Helvetica Neue, Helvetica, Arial, sans-serif"> Book E</text></g><g class="node" aria-label="graph-node77" transform="translate(-1174.8729962707644,-263.5380455715055)"><circle class="b-outline" cx="0" cy="0" r="25" fill="#F79767" stroke="#f36924" stroke-width="2px"/><text class="caption" text-anchor="middle" pointer-events="none" x="0" y="5" font-size="10px" fill="#FFFFFF" font-family="Helvetica Neue, Helvetica, Arial, sans-serif"> Book F</text></g><g class="node" aria-label="graph-node78" transform="translate(-1178.3201827267003,-355.0112256093261)"><circle class="b-outline" cx="0" cy="0" r="25" fill="#F79767" stroke="#f36924" stroke-width="2px"/><text class="caption" text-anchor="middle" pointer-events="none" x="0" y="5" font-size="10px" fill="#FFFFFF" font-family="Helvetica Neue, Helvetica, Arial, sans-serif"> Book G</text></g><g class="node" aria-label="graph-node79" transform="translate(-658.7214940800972,-128.70595742059183)"><circle class="b-outline" cx="0" cy="0" r="25" fill="#F79767" stroke="#f36924" stroke-width="2px"/><text class="caption" text-anchor="middle" pointer-events="none" x="0" y="5" font-size="10px" fill="#FFFFFF" font-family="Helvetica Neue, Helvetica, Arial, sans-serif"> Book H</text></g><g class="node" aria-label="graph-node80" transform="translate(-1033.7323870165183,223.02661394459358)"><circle class="b-outline" cx="0" cy="0" r="25" fill="#F79767" stroke="#f36924" stroke-width="2px"/><text class="caption" text-anchor="middle" pointer-events="none" x="0" y="5" font-size="10px" fill="#FFFFFF" font-family="Helvetica Neue, Helvetica, Arial, sans-serif"> Book I</text></g><g class="node" aria-label="graph-node81" transform="translate(-1055.7286863752997,90.29745118861791)"><circle class="b-outline" cx="0" cy="0" r="25" fill="#F79767" stroke="#f36924" stroke-width="2px"/><text class="caption" text-anchor="middle" pointer-events="none" x="0" y="5" font-size="10px" fill="#FFFFFF" font-family="Helvetica Neue, Helvetica, Arial, sans-serif"> Book J</text></g><g class="node" aria-label="graph-node82" transform="translate(-1112.7709821751973,-33.96137306361652)"><circle class="b-outline" cx="0" cy="0" r="25" fill="#F79767" stroke="#f36924" stroke-width="2px"/><text class="caption" text-anchor="middle" pointer-events="none" x="0" y="5" font-size="10px" fill="#FFFFFF" font-family="Helvetica Neue, Helvetica, Arial, sans-serif"> Book K</text></g><g class="node" aria-label="graph-node83" transform="translate(-1138.1102843247563,-146.04833693056608)"><circle class="b-outline" cx="0" cy="0" r="25" fill="#F79767" stroke="#f36924" stroke-width="2px"/><text class="caption" text-anchor="middle" pointer-events="none" x="0" y="5" font-size="10px" fill="#FFFFFF" font-family="Helvetica Neue, Helvetica, Arial, sans-serif"> Book L</text></g><g class="node" aria-label="graph-node84" transform="translate(-184.4592610108189,-96.08668361778501)"><circle class="b-outline" cx="0" cy="0" r="25" fill="#F79767" stroke="#f36924" stroke-width="2px"/><text class="caption" text-anchor="middle" pointer-events="none" x="0" y="5" font-size="10px" fill="#FFFFFF" font-family="Helvetica Neue, Helvetica, Arial, sans-serif"> Book M</text></g><g class="node" aria-label="graph-node85" transform="translate(-536.2002247101407,-316.4692760104487)"><circle class="b-outline" cx="0" cy="0" r="25" fill="#F79767" stroke="#f36924" stroke-width="2px"/><text class="caption" text-anchor="middle" pointer-events="none" x="0" y="5" font-size="10px" fill="#FFFFFF" font-family="Helvetica Neue, Helvetica, Arial, sans-serif"> Book N</text></g><g class="node" aria-label="graph-node86" transform="translate(-382.5140020549495,-9.676308310527972)"><circle class="b-outline" cx="0" cy="0" r="25" fill="#F79767" stroke="#f36924" stroke-width="2px"/><text class="caption" text-anchor="middle" pointer-events="none" x="0" y="5" font-size="10px" fill="#FFFFFF" font-family="Helvetica Neue, Helvetica, Arial, sans-serif"> Book O</text></g><g class="node" aria-label="graph-node87" transform="translate(-634.1687169533684,243.90665279790625)"><circle class="b-outline" cx="0" cy="0" r="25" fill="#F79767" stroke="#f36924" stroke-width="2px"/><text class="caption" text-anchor="middle" pointer-events="none" x="0" y="5" font-size="10px" fill="#FFFFFF" font-family="Helvetica Neue, Helvetica, Arial, sans-serif"> Book P</text></g><g class="node" aria-label="graph-node88" transform="translate(-542.4931588247797,99.064987181357)"><circle class="b-outline" cx="0" cy="0" r="25" fill="#F79767" stroke="#f36924" stroke-width="2px"/><text class="caption" text-anchor="middle" pointer-events="none" x="0" y="5" font-size="10px" fill="#FFFFFF" font-family="Helvetica Neue, Helvetica, Arial, sans-serif"> Book Q</text></g><g class="node" aria-label="graph-node89" transform="translate(-862.4101932786353,-234.63654521414827)"><circle class="b-outline" cx="0" cy="0" r="25" fill="#F79767" stroke="#f36924" stroke-width="2px"/><text class="caption" text-anchor="middle" pointer-events="none" x="0" y="5" font-size="10px" fill="#FFFFFF" font-family="Helvetica Neue, Helvetica, Arial, sans-serif"> Book R</text></g><g class="node" aria-label="graph-node90" transform="translate(401.71266193551753,36.38010648212441)"><circle class="b-outline" cx="0" cy="0" r="25" fill="#F79767" stroke="#f36924" stroke-width="2px"/><text class="caption" text-anchor="middle" pointer-events="none" x="0" y="5" font-size="10px" fill="#FFFFFF" font-family="Helvetica Neue, Helvetica, Arial, sans-serif"> Book S</text></g><g class="node" aria-label="graph-node91" transform="translate(285.2271628597708,175.1242392691629)"><circle class="b-outline" cx="0" cy="0" r="25" fill="#F79767" stroke="#f36924" stroke-width="2px"/><text class="caption" text-anchor="middle" pointer-events="none" x="0" y="5" font-size="10px" fill="#FFFFFF" font-family="Helvetica Neue, Helvetica, Arial, sans-serif"> Book T</text></g><g class="node" aria-label="graph-node92" transform="translate(317.464964532241,-125.07985826097058)"><circle class="b-outline" cx="0" cy="0" r="25" fill="#F79767" stroke="#f36924" stroke-width="2px"/><text class="caption" text-anchor="middle" pointer-events="none" x="0" y="5" font-size="10px" fill="#FFFFFF" font-family="Helvetica Neue, Helvetica, Arial, sans-serif"> Book U</text></g><g class="node" aria-label="graph-node93" transform="translate(-1795.458039467902,189.76654585779664)"><circle class="b-outline" cx="0" cy="0" r="25" fill="#C990C0" stroke="#b261a5" stroke-width="2px"/><text class="caption" text-anchor="middle" pointer-events="none" x="0" y="5" font-size="10px" fill="#FFFFFF" font-family="Helvetica Neue, Helvetica, Arial, sans-serif"> Alice</text></g><g class="node" aria-label="graph-node94" transform="translate(-1479.4898714525766,-271.88651139550086)"><circle class="b-outline" cx="0" cy="0" r="25" fill="#C990C0" stroke="#b261a5" stroke-width="2px"/><text class="caption" text-anchor="middle" pointer-events="none" x="0" y="5" font-size="10px" fill="#FFFFFF" font-family="Helvetica Neue, Helvetica, Arial, sans-serif"> Bob</text></g><g class="node" aria-label="graph-node95" transform="translate(-1341.7335608490148,-141.45609562931793)"><circle class="b-outline" cx="0" cy="0" r="25" fill="#C990C0" stroke="#b261a5" stroke-width="2px"/><text class="caption" text-anchor="middle" pointer-events="none" x="0" y="5" font-size="10px" fill="#FFFFFF" font-family="Helvetica Neue, Helvetica, Arial, sans-serif"> Charlie</text></g><g class="node" aria-label="graph-node96" transform="translate(-1671.8807798558819,-367.4432458577553)"><circle class="b-outline" cx="0" cy="0" r="25" fill="#C990C0" stroke="#b261a5" stroke-width="2px"/><text class="caption" text-anchor="middle" pointer-events="none" x="0" y="5" font-size="10px" fill="#FFFFFF" font-family="Helvetica Neue, Helvetica, Arial, sans-serif"> David</text></g><g class="node" aria-label="graph-node97" transform="translate(-876.7895306350321,-413.95651203039796)"><circle class="b-outline" cx="0" cy="0" r="25" fill="#C990C0" stroke="#b261a5" stroke-width="2px"/><text class="caption" text-anchor="middle" pointer-events="none" x="0" y="5" font-size="10px" fill="#FFFFFF" font-family="Helvetica Neue, Helvetica, Arial, sans-serif"> Eve</text></g><g class="node" aria-label="graph-node98" transform="translate(-1248.6235049018685,217.56281701193006)"><circle class="b-outline" cx="0" cy="0" r="25" fill="#C990C0" stroke="#b261a5" stroke-width="2px"/><text class="caption" text-anchor="middle" pointer-events="none" x="0" y="5" font-size="10px" fill="#FFFFFF" font-family="Helvetica Neue, Helvetica, Arial, sans-serif"> Frank</text></g><g class="node" aria-label="graph-node99" transform="translate(-1239.6645246325627,72.0112085252236)"><circle class="b-outline" cx="0" cy="0" r="25" fill="#C990C0" stroke="#b261a5" stroke-width="2px"/><text class="caption" text-anchor="middle" pointer-events="none" x="0" y="5" font-size="10px" fill="#FFFFFF" font-family="Helvetica Neue, Helvetica, Arial, sans-serif"> George</text></g></g></svg>